<?xml version="1.0" encoding="UTF-8" standalone="no"?>
<svg
   xmlns:dc="http://purl.org/dc/elements/1.1/"
   xmlns:cc="http://creativecommons.org/ns#"
   xmlns:rdf="http://www.w3.org/1999/02/22-rdf-syntax-ns#"
   xmlns:svg="http://www.w3.org/2000/svg"
   xmlns="http://www.w3.org/2000/svg"
   xmlns:sodipodi="http://sodipodi.sourceforge.net/DTD/sodipodi-0.dtd"
   xmlns:inkscape="http://www.inkscape.org/namespaces/inkscape"
   width="16"
   height="16"
   viewBox="0 0 16 16"
   fill="none"
   version="1.1"
   id="svg4"
   sodipodi:docname="R pour favicone.svg"
   inkscape:version="1.0.1 (3bc2e813f5, 2020-09-07)">
  <metadata
     id="metadata10">
    <rdf:RDF>
      <cc:Work
         rdf:about="">
        <dc:format>image/svg+xml</dc:format>
        <dc:type
           rdf:resource="http://purl.org/dc/dcmitype/StillImage" />
        <dc:title></dc:title>
      </cc:Work>
    </rdf:RDF>
  </metadata>
  <defs
     id="defs8" />
  <sodipodi:namedview
     pagecolor="#ffffff"
     bordercolor="#666666"
     borderopacity="1"
     objecttolerance="10"
     gridtolerance="10"
     guidetolerance="10"
     inkscape:pageopacity="0"
     inkscape:pageshadow="2"
     inkscape:window-width="1920"
     inkscape:window-height="1017"
     id="namedview6"
     showgrid="false"
     inkscape:zoom="12.515464"
     inkscape:cx="31.241351"
     inkscape:cy="22.5"
     inkscape:window-x="-8"
     inkscape:window-y="1072"
     inkscape:window-maximized="1"
     inkscape:current-layer="svg4"
     inkscape:document-rotation="0" />
  <path
     d="M 8.9165933,11.755171 C 8.7859253,11.349947 8.6552003,10.99051 8.5244753,10.676804 8.4068573,10.363099 8.3022883,10.095124 8.2107703,9.8729367 7.7010332,10.042868 7.1454862,10.160487 6.5442202,10.225849 c 0,0.836548 0.0196,1.548953 0.05882,2.137158 0.01307,0.365962 0.02614,0.679668 0.03921,0.941062 0.02614,0.248399 0.04575,0.464061 0.05882,0.647042 0.02614,0.182981 0.05228,0.346387 0.07842,0.490162 0.02614,0.15688 0.06536,0.30718 0.117641,0.450955 -0.261421,0.196087 -0.516306,0.339862 -0.764655,0.431324 -0.235282,0.09152 -0.444419,0.156881 -0.627411,0.196087 -0.22221,0.05231 -0.418275,0.06536 -0.5882,0.03921 -0.06536,-0.182981 -0.124177,-0.379068 -0.176461,-0.588206 -0.05228,-0.196031 -0.0915,-0.47053 -0.117642,-0.823442 -0.01307,-0.339862 -0.0196,-0.777767 -0.0196,-1.31366 0,-0.535893 0.0196,-1.222142 0.05882,-2.05869 0.01307,-0.09152 0.0196,-0.182981 0.0196,-0.2745 0,-0.09152 0.0065,-0.182981 0.01961,-0.274499 -0.117641,-0.01305 -0.241813,-0.02616 -0.372527,-0.03921 -0.117641,-0.01305 -0.235276,-0.02616 -0.352917,-0.03921 -0.07843,-0.2091373 -0.130713,-0.3921183 -0.156853,-0.5489983 -0.02614,-0.169931 -0.03921,-0.307181 -0.03921,-0.41175 0,-0.130668 0.01307,-0.235237 0.03921,-0.313705 0.209137,0.03921 0.418274,0.05884 0.627412,0.05884 h 0.294097 c 0.02614,-0.548999 0.05228,-1.104523 0.07843,-1.666572 0.02614,-0.575099 0.04575,-1.130623 0.05882,-1.666572 0.02614,-0.548943 0.04575,-1.065261 0.05881,-1.548897 0.01307,-0.496687 0.02614,-0.947642 0.03922,-1.352866 -0.392135,0.261449 -0.73198,0.601255 -1.019547,1.019529 -0.28756,0.418274 -0.4836309,0.901911 -0.5881989,1.45091 -0.16992,-0.02616 -0.313706,-0.104569 -0.4313411,-0.235293 -0.117641,-0.143775 -0.215674,-0.28755 -0.2941029,-0.431325 -0.0915,-0.169931 -0.16992,-0.359437 -0.235277,-0.568574 -0.06536,-0.248343 -0.06536,-0.496742 0,-0.745086 0.06536,-0.261393 0.16339,-0.503212 0.294098,-0.725455 0.130713,-0.235237 0.28103,-0.437849 0.450955,-0.60778 0.1699199,-0.182981 0.3333089,-0.326756 0.4901619,-0.431324 0.274493,-0.169931 0.555524,-0.320287 0.843084,-0.45095606 0.300634,-0.143797 0.633948,-0.261438 0.999938,-0.352934 0.14378,-0.143786 0.3006331,-0.274494 0.470558,-0.392135 0.182998,-0.117641 0.352918,-0.189528 0.509771,-0.215673 0.222209,-0.05229 0.346387,0.08497 0.372526,0.411738 0.117641,-0.01307 0.241818,-0.0196 0.372526,-0.0196 0.130708,-0.01307 0.267947,-0.01961 0.411721,-0.01961 0.496743,0 1.013005,0.07843 1.548954,0.235282 0.535893,0.156853 1.0260548,0.41171606 1.4704858,0.76462806 0.45748,0.339861 0.830023,0.790817 1.117573,1.352866 0.287549,0.548999 0.431324,1.222141 0.431324,2.019484 0,0.90191 -0.215662,1.731934 -0.646987,2.49007 -0.418274,0.75808 -1.019529,1.385491 -1.8038217,1.882234 0.09152,0.235237 0.209137,0.529368 0.3529117,0.8822803 0.143775,0.352912 0.28755,0.751611 0.431381,1.195985 0.209137,0.548999 0.431324,1.065317 0.666617,1.548953 0.248344,0.470531 0.503212,0.88228 0.764662,1.235192 0.261393,0.352912 0.535893,0.633937 0.823442,0.843074 0.287606,0.222243 0.575155,0.352912 0.862705,0.392174 -0.169931,0.261393 -0.365962,0.444374 -0.588205,0.548943 -0.222188,0.104568 -0.444431,0.169931 -0.666618,0.196087 -0.248343,0.03921 -0.509793,0.03921 -0.784236,0 -0.379068,-0.07841 -0.70588,-0.261394 -0.980379,-0.548999 -0.274444,-0.28755 -0.516263,-0.633937 -0.7254007,-1.039161 -0.196086,-0.405168 -0.379068,-0.836548 -0.548998,-1.294029 -0.156881,-0.47053 -0.300656,-0.914961 -0.431381,-1.333235 z M 6.6422522,3.4027357 c 0,0.287606 -0.0065,0.633993 -0.01961,1.039161 -0.01307,0.405224 -0.02614,0.843073 -0.03921,1.31366 0,0.470531 -0.0065,0.967273 -0.01961,1.490116 -0.01307,0.509737 -0.0196,1.019529 -0.0196,1.529322 0.352917,-0.05231 0.738516,-0.13725 1.156813,-0.254924 0.431324,-0.117619 0.829967,-0.313706 1.195985,-0.588205 0.365962,-0.2745 0.673143,-0.640462 0.921486,-1.097942 0.2483438,-0.457481 0.3725438,-1.045686 0.3725438,-1.764616 0,-0.548999 -0.09804,-1.013004 -0.2940757,-1.392072 -0.183036,-0.392118 -0.424855,-0.705824 -0.725454,-0.941117 -0.300656,-0.248344 -0.6339371,-0.4248 -0.999955,-0.529368 -0.3529121,-0.117619 -0.7058241,-0.176456 -1.058752,-0.176456 h -0.196065 c -0.06536,0 -0.13725,0.0065 -0.215673,0.01963 -0.03921,0.418274 -0.05882,0.86923 -0.05882,1.35281 z"
     fill="#0065fc"
     id="path2"
     sodipodi:nodetypes="ccccccccccccccscsccccscsccccccccccccccccccccscccsccsccccccccscccsscccccsscccsscs"
     style="stroke-width:0.557699" />
</svg>
