<?xml version="1.0" encoding="UTF-8" standalone="no"?>
<svg
   xmlns:dc="http://purl.org/dc/elements/1.1/"
   xmlns:cc="http://creativecommons.org/ns#"
   xmlns:rdf="http://www.w3.org/1999/02/22-rdf-syntax-ns#"
   xmlns:svg="http://www.w3.org/2000/svg"
   xmlns="http://www.w3.org/2000/svg"
   xmlns:sodipodi="http://sodipodi.sourceforge.net/DTD/sodipodi-0.dtd"
   xmlns:inkscape="http://www.inkscape.org/namespaces/inkscape"
   aria-hidden="true"
   focusable="false"
   data-prefix="fas"
   data-icon="star"
   class="svg-inline--fa fa-star fa-w-18"
   role="img"
   viewBox="0 0 2880 512"
   version="1.1"
   id="svg4"
   sodipodi:docname="3stars.svg"
   inkscape:version="1.0.1 (3bc2e813f5, 2020-09-07)"
   width="2880"
   height="512">
  <metadata
     id="metadata10">
    <rdf:RDF>
      <cc:Work
         rdf:about="">
        <dc:format>image/svg+xml</dc:format>
        <dc:type
           rdf:resource="http://purl.org/dc/dcmitype/StillImage" />
        <dc:title></dc:title>
      </cc:Work>
    </rdf:RDF>
  </metadata>
  <defs
     id="defs8" />
  <sodipodi:namedview
     pagecolor="#ffffff"
     bordercolor="#666666"
     borderopacity="1"
     objecttolerance="10"
     gridtolerance="10"
     guidetolerance="10"
     inkscape:pageopacity="0"
     inkscape:pageshadow="2"
     inkscape:window-width="1920"
     inkscape:window-height="1017"
     id="namedview6"
     showgrid="false"
     inkscape:zoom="0.29347694"
     inkscape:cx="2055.1087"
     inkscape:cy="-201.55754"
     inkscape:window-x="-8"
     inkscape:window-y="1072"
     inkscape:window-maximized="1"
     inkscape:current-layer="svg4" />
  <path
     fill="currentColor"
     d="m 238.80047,17.781019 -65.3,132.400001 -146.099995,21.3 c -26.2000001,3.8 -36.7000001,36.1 -17.7000001,54.6 l 105.6999951,103 -24.999995,145.5 c -4.5,26.3 23.199995,46 46.399995,33.7 l 130.7,-68.7 130.7,68.7 c 23.2,12.2 50.9,-7.4 46.4,-33.7 l -25,-145.5 105.7,-103 c 19,-18.5 8.5,-50.8 -17.7,-54.6 l -146.1,-21.3 -65.3,-132.400001 c -11.7,-23.6000004 -45.6,-23.9000004 -57.4,0 z"
     id="path2"
     style="fill:#0065fc;fill-opacity:1" />
  <path
     fill="currentColor"
     d="m 825.05027,17.781018 -65.3,132.400002 -146.09999,21.3 c -26.2,3.8 -36.7,36.1 -17.7,54.6 l 105.69999,103 -24.99999,145.5 c -4.5,26.3 23.19999,46 46.39999,33.7 l 130.7,-68.7 130.69997,68.7 c 23.19996,12.2 50.89996,-7.4 46.39996,-33.7 l -25,-145.5 105.7,-103 c 19,-18.5 8.5,-50.8 -17.7,-54.6 l -146.09993,-21.3 -65.3,-132.400002 c -11.7,-23.6000006 -45.6,-23.9000006 -57.4,0 z"
     id="path2-8"
     style="fill:#0065fc;fill-opacity:1" />
  <path
     fill="currentColor"
     d="m 1411.3,17.781019 -65.3,132.400001 -146.1,21.3 c -26.2,3.8 -36.7,36.1 -17.7,54.6 l 105.7,103 -25,145.5 c -4.5,26.3 23.2,46 46.4,33.7 l 130.7,-68.7 130.7,68.7 c 23.2,12.2 50.9,-7.4 46.4,-33.7 l -25,-145.5 105.7,-103 c 19,-18.5 8.5,-50.8 -17.7,-54.6 l -146.1,-21.3 -65.3,-132.400001 c -11.7,-23.6000006 -45.6,-23.9000006 -57.4,0 z"
     id="path2-2"
     style="fill:#0065fc;fill-opacity:1" />
  <path
     fill="currentColor"
     d="m 1997.5497,17.781017 -65.3,132.400003 -146.1,21.3 c -26.2,3.8 -36.7,36.1 -17.7,54.6 l 105.7,103 -25,145.5 c -4.5,26.3 23.2,46 46.4,33.7 l 130.7,-68.7 130.7,68.7 c 23.2,12.2 50.9,-7.4 46.4,-33.7 l -25,-145.5 105.7,-103 c 19,-18.5 8.5,-50.8 -17.7,-54.6 l -146.1,-21.3 -65.3,-132.400003 c -11.7,-23.5999992 -45.6,-23.8999992 -57.4,0 z"
     id="path2-6"
     style="fill:#f2f2f2;fill-opacity:1" />
  <path
     fill="currentColor"
     d="m 2583.7995,17.78102 -65.3,132.4 -146.1,21.3 c -26.2,3.8 -36.7,36.1 -17.7,54.6 l 105.7,103 -25,145.5 c -4.5,26.3 23.2,46 46.4,33.7 l 130.7,-68.7 130.7,68.7 c 23.2,12.2 50.9,-7.4 46.4,-33.7 l -25,-145.5 105.7,-103 c 19,-18.5 8.5,-50.8 -17.7,-54.6 l -146.1,-21.3 -65.3,-132.4 c -11.7,-23.5999999 -45.6,-23.8999999 -57.4,0 z"
     id="path2-28"
     style="fill:#f2f2f2;fill-opacity:1" />
</svg>
