<?xml version="1.0" encoding="UTF-8" standalone="no"?>
<svg
   xmlns:dc="http://purl.org/dc/elements/1.1/"
   xmlns:cc="http://creativecommons.org/ns#"
   xmlns:rdf="http://www.w3.org/1999/02/22-rdf-syntax-ns#"
   xmlns:svg="http://www.w3.org/2000/svg"
   xmlns="http://www.w3.org/2000/svg"
   xmlns:sodipodi="http://sodipodi.sourceforge.net/DTD/sodipodi-0.dtd"
   xmlns:inkscape="http://www.inkscape.org/namespaces/inkscape"
   aria-hidden="true"
   focusable="false"
   data-prefix="fas"
   data-icon="info-circle"
   class="svg-inline--fa fa-info-circle fa-w-16"
   role="img"
   viewBox="0 0 512 512"
   version="1.1"
   id="svg4"
   sodipodi:docname="info-circle-solid-blue.svg"
   inkscape:version="1.0.1 (3bc2e813f5, 2020-09-07)">
  <metadata
     id="metadata10">
    <rdf:RDF>
      <cc:Work
         rdf:about="">
        <dc:format>image/svg+xml</dc:format>
        <dc:type
           rdf:resource="http://purl.org/dc/dcmitype/StillImage" />
        <dc:title />
      </cc:Work>
    </rdf:RDF>
  </metadata>
  <defs
     id="defs8" />
  <sodipodi:namedview
     pagecolor="#ffffff"
     bordercolor="#666666"
     borderopacity="1"
     objecttolerance="10"
     gridtolerance="10"
     guidetolerance="10"
     inkscape:pageopacity="0"
     inkscape:pageshadow="2"
     inkscape:window-width="1920"
     inkscape:window-height="1017"
     id="namedview6"
     showgrid="false"
     inkscape:zoom="1.6601562"
     inkscape:cx="256"
     inkscape:cy="256"
     inkscape:window-x="-8"
     inkscape:window-y="-8"
     inkscape:window-maximized="1"
     inkscape:current-layer="svg4"
     inkscape:document-rotation="0" />
  <path
     d="M 256,8 C 119.043,8 8,119.083 8,256 8,392.997 119.043,504 256,504 392.957,504 504,392.997 504,256 504,119.083 392.957,8 256,8 Z"
     id="path2"
     style="stroke:#f2f2f2;stroke-opacity:1;stroke-width:20;stroke-miterlimit:4;stroke-dasharray:none;fill:none;fill-opacity:0" />
  <path
     d="m 312,372 c 0,6.627 -5.373,12 -12,12 h -88 c -6.627,0 -12,-5.373 -12,-12 v -24 c 0,-6.627 5.373,-12 12,-12 h 12 v -64 h -12 c -6.627,0 -12,-5.373 -12,-12 v -24 c 0,-6.627 5.373,-12 12,-12 h 64 c 6.627,0 12,5.373 12,12 v 100 h 12 c 6.627,0 12,5.373 12,12 z"
     id="path839"
     style="fill:#0065fc;fill-opacity:1" />
  <path
     d="m 256,118 c 23.196,0 42,18.804 42,42 0,23.196 -18.804,42 -42,42 -23.196,0 -42,-18.804 -42,-42 0,-23.196 18.804,-42 42,-42 z"
     id="path837"
     style="fill:#0065fc;fill-opacity:1;stroke:none" />
</svg>
